<?xml version="1.0" standalone="no"?>
<!DOCTYPE svg PUBLIC "-//W3C//DTD SVG 20010904//EN"
 "http://www.w3.org/TR/2001/REC-SVG-20010904/DTD/svg10.dtd">
<svg version="1.0" xmlns="http://www.w3.org/2000/svg"
 width="512.000000pt" height="512.000000pt" viewBox="0 0 512.000000 512.000000"
 preserveAspectRatio="xMidYMid meet">
<metadata>
Created by potrace 1.14, written by Peter Selinger 2001-2017
</metadata>
<g transform="translate(0.000000,512.000000) scale(0.100000,-0.100000)"
fill="#000000" stroke="none">
<path d="M1880 4672 c-24 -24 -30 -39 -30 -73 0 -35 6 -47 36 -76 l36 -34 -56
-74 c-186 -247 -311 -343 -461 -352 -38 -3 -80 -1 -92 4 l-23 8 30 64 c38 80
39 114 1 152 -24 23 -38 29 -73 29 -42 0 -45 2 -57 38 -30 80 -91 158 -184
233 -38 30 -58 39 -87 39 -48 0 -90 -33 -109 -86 -8 -22 -50 -100 -94 -174
-106 -179 -130 -242 -130 -347 l-1 -81 -30 15 c-51 26 -138 53 -173 53 -24 0
-43 -8 -62 -28 -24 -23 -29 -39 -35 -102 -4 -41 -16 -117 -27 -169 -43 -211
-42 -329 3 -421 l23 -47 -90 5 c-112 6 -157 -10 -182 -62 -16 -34 -16 -39 0
-88 9 -29 26 -111 37 -183 36 -228 65 -308 141 -390 l40 -44 -43 -11 c-134
-35 -188 -74 -188 -138 0 -28 9 -51 32 -83 18 -24 62 -98 99 -163 92 -165 147
-236 220 -285 34 -23 68 -41 76 -41 25 0 11 -16 -55 -64 -124 -91 -135 -177
-30 -239 24 -14 88 -65 143 -113 164 -144 274 -204 372 -204 l43 0 -40 -59
c-69 -101 -82 -148 -55 -200 15 -30 34 -40 129 -66 33 -9 103 -34 156 -55 182
-72 313 -90 408 -56 40 15 42 14 32 -3 -15 -29 -31 -109 -32 -168 -1 -45 2
-57 26 -82 l27 -28 252 2 c270 3 316 10 403 60 91 53 158 161 178 287 l10 68
166 0 166 0 10 -68 c20 -126 87 -234 178 -287 87 -50 133 -57 403 -60 l252 -2
27 28 c24 25 27 37 26 82 -1 59 -17 139 -32 168 -10 17 -8 18 32 3 95 -34 226
-16 408 56 53 21 123 46 156 55 95 26 114 36 129 66 27 52 14 99 -55 200 l-40
59 43 0 c101 0 199 53 368 201 57 50 123 102 147 116 105 62 94 148 -30 239
-66 48 -80 64 -55 64 8 0 42 18 76 41 73 49 128 120 220 285 37 65 81 139 99
163 23 32 32 55 32 83 0 57 -40 91 -146 124 l-84 26 39 43 c76 82 105 162 141
390 11 72 28 154 37 183 16 49 16 54 0 88 -25 52 -70 68 -182 62 l-90 -5 23
47 c45 92 46 210 3 421 -11 52 -23 127 -27 167 -8 86 -28 118 -81 128 -38 7
-118 -13 -183 -46 l-36 -18 0 81 c-1 103 -26 170 -134 352 -43 72 -83 147 -91
169 -31 86 -106 109 -183 57 -63 -44 -150 -142 -181 -205 l-27 -54 -58 58
c-113 113 -261 203 -433 263 -87 30 -100 32 -237 32 -132 0 -150 -2 -198 -24
-57 -26 -82 -59 -82 -109 0 -39 139 -228 178 -243 87 -33 170 59 128 142 -9
18 -15 33 -14 35 9 7 130 -21 199 -46 185 -67 359 -213 415 -345 l14 -35 -40
-6 c-50 -8 -86 -35 -104 -78 -10 -24 -23 -35 -53 -44 -143 -43 -323 -246 -323
-364 0 -51 40 -94 96 -103 21 -4 81 -20 132 -37 l94 -30 -25 -27 c-69 -74 -60
-153 23 -196 15 -8 63 -42 105 -75 l76 -61 -43 -22 c-55 -28 -85 -83 -69 -128
5 -16 25 -49 44 -72 33 -41 107 -159 107 -170 0 -3 -21 -9 -47 -13 -33 -5 -56
-16 -76 -36 -34 -33 -33 -63 1 -183 10 -38 22 -91 26 -117 l7 -46 -38 9 c-64
15 -83 11 -119 -25 -31 -31 -34 -39 -34 -93 0 -52 -10 -128 -25 -200 l-5 -22
-43 24 c-83 48 -139 25 -177 -72 -13 -32 -41 -89 -62 -126 l-39 -68 -30 40
c-30 43 -56 55 -107 49 -31 -3 -131 -90 -328 -283 -143 -141 -177 -253 -128
-422 6 -22 4 -23 -66 -23 -70 0 -72 1 -66 23 49 169 15 281 -128 422 -197 193
-297 280 -328 283 -51 6 -77 -6 -107 -49 l-30 -40 -39 68 c-21 37 -49 94 -62
126 -38 97 -94 120 -177 72 l-43 -24 -5 22 c-15 72 -25 148 -25 200 0 54 -3
62 -34 93 -36 36 -55 40 -119 25 l-38 -9 7 46 c4 26 16 79 26 117 34 120 35
150 1 183 -20 20 -43 31 -76 36 -26 4 -47 10 -47 13 0 11 74 129 107 170 19
23 39 56 44 72 16 45 -14 100 -69 128 l-43 22 76 61 c42 33 90 67 105 75 83
43 92 122 23 196 l-25 27 94 30 c51 17 111 33 132 37 56 9 96 52 96 103 0 63
-53 157 -138 242 -41 41 -70 76 -65 77 44 15 153 93 226 163 79 74 139 149
334 413 46 64 53 98 28 146 -21 42 -102 73 -202 79 -81 4 -83 4 -113 -26z
m-868 -427 c17 -57 14 -162 -5 -220 -19 -55 -79 -142 -104 -152 -24 -9 -100
78 -109 124 -10 52 15 121 92 252 l67 113 24 -38 c13 -22 29 -57 35 -79z
m3227 -5 c72 -122 97 -192 87 -242 -7 -39 -78 -128 -102 -128 -7 0 -31 22 -53
50 -63 80 -91 190 -71 287 13 63 59 158 70 146 4 -5 35 -55 69 -113z m-2827
-494 c64 -26 144 -85 131 -96 -4 -4 -62 -26 -129 -49 -132 -45 -212 -53 -264
-26 -28 14 -90 93 -90 113 0 13 57 48 106 66 63 23 179 20 246 -8z m2581 -10
c32 -15 61 -34 64 -42 7 -19 -53 -101 -87 -119 -52 -27 -132 -19 -264 26 -67
23 -125 45 -129 49 -12 11 67 70 131 97 82 34 203 30 285 -11z m-3417 -65 c68
-94 88 -231 47 -336 -17 -45 -22 -50 -47 -48 -38 3 -102 46 -120 82 -32 62
-29 136 14 339 l12 52 30 -21 c16 -12 45 -42 64 -68z m4085 -17 c27 -129 30
-238 6 -282 -19 -35 -76 -77 -120 -87 -24 -6 -29 -3 -42 29 -60 143 -31 291
78 400 26 26 50 46 52 44 3 -2 14 -49 26 -104z m-3451 -324 c20 -5 44 -16 54
-23 17 -12 10 -21 -85 -97 -160 -129 -223 -147 -311 -91 -25 16 -49 34 -53 41
-10 16 40 84 86 116 82 57 216 80 309 54z m2950 -22 c81 -38 162 -121 145
-149 -4 -6 -28 -24 -53 -40 -54 -34 -107 -38 -167 -10 -59 26 -249 181 -237
193 45 45 221 49 312 6z m-3787 -332 c95 -72 147 -176 147 -292 l0 -64 -48 0
c-71 0 -131 34 -160 91 -19 39 -43 144 -65 291 l-5 36 45 -15 c24 -9 63 -30
86 -47z m4482 -79 c-28 -170 -52 -223 -115 -254 -28 -15 -62 -23 -93 -23 l-50
0 5 83 c6 103 32 162 108 238 38 38 72 62 110 76 30 12 56 20 57 19 1 -1 -9
-63 -22 -139z m-3757 -119 c-104 -175 -150 -218 -231 -218 -35 0 -95 17 -111
30 -13 12 12 79 51 137 39 58 118 117 184 138 24 7 72 14 106 14 l62 1 -61
-102z m3076 68 c69 -34 136 -100 165 -162 35 -73 33 -94 -9 -110 -49 -18 -106
-17 -146 2 -44 21 -84 71 -163 203 l-62 104 79 -5 c60 -3 94 -11 136 -32z
m-3015 -516 c-44 -240 -87 -300 -219 -300 l-50 0 0 60 c0 145 98 282 238 332
26 9 48 16 49 15 1 -1 -7 -49 -18 -107z m2875 75 c109 -52 188 -175 195 -302
l3 -73 -50 0 c-128 0 -173 55 -212 258 -12 59 -23 117 -25 129 -5 20 -2 21 24
13 16 -4 45 -16 65 -25z m-3643 -139 c109 -25 197 -98 245 -200 34 -74 32 -93
-13 -105 -90 -25 -148 -9 -206 59 -41 48 -148 240 -141 252 7 12 51 10 115 -6z
m4453 6 c7 -12 -100 -204 -141 -252 -58 -68 -116 -84 -205 -59 -46 12 -48 31
-14 105 47 100 136 175 240 200 61 15 113 17 120 6z m-3474 -363 c25 -142 25
-202 1 -256 -20 -43 -84 -90 -131 -95 -34 -4 -59 63 -59 164 -1 110 25 176
101 252 32 32 61 56 64 54 2 -3 13 -57 24 -119z m2490 44 c52 -59 73 -117 78
-213 3 -67 0 -96 -15 -135 -22 -58 -39 -61 -111 -19 -83 49 -97 122 -62 324
11 63 20 116 20 118 0 9 62 -42 90 -75z m-2148 -355 c66 -119 88 -176 88 -228
0 -40 -31 -95 -78 -135 l-27 -24 -28 27 c-72 69 -111 212 -88 322 11 53 54
140 69 140 4 0 33 -46 64 -102z m1803 37 c27 -52 30 -68 30 -149 0 -82 -3 -98
-32 -156 -18 -36 -45 -77 -60 -92 l-28 -27 -27 24 c-75 64 -93 129 -63 216 23
65 128 250 140 246 5 -2 24 -30 40 -62z m-2665 -58 c57 -21 170 -121 170 -150
0 -28 -81 -71 -140 -74 -69 -5 -111 18 -240 131 l-91 80 27 14 c66 35 178 34
274 -1z m3679 6 l45 -16 -55 -49 c-154 -138 -211 -172 -283 -166 -53 5 -136
49 -136 73 0 7 20 36 45 63 96 107 248 144 384 95z m-2256 -292 c26 -37 32
-56 32 -96 -1 -52 -38 -135 -60 -135 -22 0 -101 58 -138 100 -52 61 -80 139
-81 225 0 39 3 83 7 98 l8 28 100 -87 c55 -48 115 -108 132 -133z m820 99 c0
-91 -26 -167 -80 -230 -37 -42 -116 -100 -138 -100 -22 0 -59 83 -60 135 0 67
37 120 163 228 113 98 115 97 115 -33z m-1620 -313 c78 -39 84 -48 57 -92 -47
-76 -116 -105 -204 -85 -72 16 -267 93 -263 104 6 18 99 76 146 91 73 24 195
15 264 -18z m2434 18 c50 -15 143 -71 150 -91 4 -11 -191 -88 -263 -104 -55
-13 -105 -6 -142 18 -25 16 -82 88 -82 103 0 4 15 18 32 31 78 55 205 73 305
43z m-1748 -256 c20 -8 23 -14 18 -45 -11 -66 -39 -107 -93 -134 -43 -22 -64
-25 -186 -28 -168 -5 -174 -4 -153 39 73 141 272 221 414 168z m1038 -11 c62
-23 139 -89 171 -147 30 -54 28 -54 -146 -49 -197 7 -244 31 -274 141 -15 56
-9 64 53 76 56 12 130 4 196 -21z"/>
<path d="M1512 4585 c-67 -30 -76 -127 -15 -175 95 -74 217 61 136 150 -34 36
-76 45 -121 25z"/>
<path d="M3334 4192 c-36 -23 -59 -71 -50 -106 3 -14 17 -38 30 -53 20 -23 32
-28 71 -28 40 0 51 5 76 33 39 43 39 90 2 132 -36 40 -86 48 -129 22z"/>
</g>
</svg>
